# xmcd CD database file
#
# Track frame offsets:
#	150
#	13813
#	21470
#	35643
#	43108
#	47572
#	54751
#	75649
#	90240
#	103370
#	112332
#	129515
#	136537
#	139587
#	145112
#	151178
#	154483
#	165890
#	174505
#	184250
#	187528
#	189992
#	192334
#	199322
#	208087
#
# Disc length: 2896 seconds
#
# Revision: 0
# Processed by: cddbd v1.5.2PL0 Copyright (c) Steve Scherf et al.
# Submitted via: CDex 1.51
#
DISCID=530b4e19
DTITLE=ensemble De Organographia - Music of the Ancient Sumerians, Egyptians and Greeks
DYEAR=2006
DGENRE=New Age
TTITLE0=Musical Excerpts....Anon. (2nd c. AD)
TTITLE1=Lament...Anon. (2nd or 3rd c. AD)
TTITLE2=Fragment 1...Anon. (2nd c. AD)
TTITLE3=Paean...Anon. (3rd or 4th c. AD)
TTITLE4=Trochaic fragment....Anon. (3rd c. AD)
TTITLE5=Four settings of a line from "Epitrepontes" by Menander...Anon.(3rd c.AD)
TTITLE6=Excerpts mentioning Eros and Aphrodite...Anon. (2nd or 3rd c. AD)
TTITLE7=Musical excerpt...Anon. (3rd c. AD)
TTITLE8=Hypolydian excerpt...Anon. (2nd or 3rd c. AD)
TTITLE9=Fragment 3...Anon. (3rd c. AD)
TTITLE10=A zaluzi to the gods...Anon. (c. 1225 BC)
TTITLE11=Hurrian Hymns 19 and 23...Anon. (c.1225 BC)
TTITLE12=Hurrian Hymns 13 and 12...Urhiya/Anon. (c. 1225 BC)
TTITLE13=Hurrian Hymn 2...Anon. (c. 1225 BC)
TTITLE14=Hurrian Hymn 8...Urhiya (c. 1225 BC)
TTITLE15=Hurrian Hymn 5...Puhiya(na) (c. 1225 BC)
TTITLE16=Hurrian Hymns 4, 21 and 22... Anon. (c. 1225 BC)
TTITLE17=Hurrian Hymns 7 and 10...Anon. (c. 1225 BC)
TTITLE18=Hurrian Hymns 16 and 30...Anon. (c.1225 BC)
TTITLE19=Musical Instructions for "Lipit-Ishtar, King of Justice" (c. 1950 BC)
TTITLE20=Trumpet call...Anon./Plutarch
TTITLE21=Isis sistrum rhythm...Anon./Apuleius
TTITLE22=Theban banquet scene...Anon. (14th c. BC)
TTITLE23=Harp pieces (A) (B)...
TTITLE24=Anon. (7th or 6th c. BC)
EXTD=YEAR: 2006
EXTT0=
EXTT1=
EXTT2=
EXTT3=
EXTT4=
EXTT5=
EXTT6=
EXTT7=
EXTT8=
EXTT9=
EXTT10=
EXTT11=
EXTT12=
EXTT13=
EXTT14=
EXTT15=
EXTT16=
EXTT17=
EXTT18=
EXTT19=
EXTT20=
EXTT21=
EXTT22=
EXTT23=
EXTT24=
PLAYORDER=
